HIERARCHY
ROOT Hips
{
	OFFSET 0.00000 0.00000 0.00000
	CHANNELS 6 Xposition Yposition Zposition Yrotation Zrotation Xrotation 
	JOINT Lumbar
	{
		OFFSET 0 0 0
		CHANNELS 3 Zrotation Xrotation Yrotation
		JOINT Neck
		{
			OFFSET 0.00 0.2701 0.00
			CHANNELS 3 Zrotation Xrotation Yrotation
			End Site
			{
				OFFSET 0.00 0.1379 0.00
			}
		}
		JOINT RightShoulder
		{
			OFFSET 0.0119 0.2289 0.1181
			CHANNELS 3 Zrotation Xrotation Yrotation
			JOINT RightElbow
			{
				OFFSET 0.00 -0.1475 0.00
				CHANNELS 2 Zrotation Yrotation
				JOINT RightWrist
				{
					OFFSET 0.00 -0.1605 0.00
					CHANNELS 2 Zrotation Xrotation
					End Site
					{
						OFFSET 0.0040 -0.1068 0.0006
					}
				}
			}
		}
		JOINT LeftShoulder
		{
			OFFSET 0.0119 0.2289 -0.1181
			CHANNELS 3 Zrotation Xrotation Yrotation
			JOINT LeftElbow
			{
				OFFSET 0.00 -0.1475 0.00
				CHANNELS 2 Zrotation Yrotation
				JOINT LeftWrist
				{
					OFFSET 0.00 -0.1605 0.00
					CHANNELS 2 Zrotation Xrotation
					End Site
					{
						OFFSET 0.0040 -0.1068 -0.0006
					}
				}
			}
		}
	}
	JOINT RightHip
	{
		OFFSET 0.0316 -0.0424 0.0458
		CHANNELS 3 Zrotation Xrotation Yrotation
		JOINT RightKnee
		{
			OFFSET 0.00 -0.2438 0.00
			CHANNELS 1 Zrotation
			JOINT RightAnkle
			{
				OFFSET 0.00 -0.2449 0.00
				CHANNELS 3 Zrotation Xrotation Yrotation
				End Site
				{
					OFFSET 0.1237 -0.0542 0.0051
				}
			}
		}
	}
	JOINT LeftHip
	{
		OFFSET 0.0316 -0.0424 -0.0458
		CHANNELS 3 Zrotation Xrotation Yrotation
		JOINT LeftKnee
		{
			OFFSET 0.00 -0.2438 0.00
			CHANNELS 1 Zrotation
			JOINT LeftAnkle
			{
				OFFSET 0.00 -0.2449 0.00
				CHANNELS 3 Zrotation Xrotation Yrotation
				End Site
				{
					OFFSET 0.1237 -0.0542 -0.0051
				}
			}
		}
	}
}
MOTION
Frames: 30
Frame Time: 0.02
-0.00098 -3e-05 -3e-05 24.58085 -36.3251 -4.33915 55.20583 0.14918 0.27043 -12.48147 -0.14645 -0.70434 153.99396 -78.52735 -59.90794 16.40919 88.97621 0.76487 -6.65582 158.80657 73.70552 74.74991 11.98103 -75.32688 2.05033 7.44042 52.66093 0.79792 0.55461 -19.16475 -8.98895 -5.6689 -3.83367 55.57543 0.59194 -2.01224 -24.16093 -9.32434 5.40539 3.6777
-0.00062 1e-05 -0.00066 24.61111 -36.25491 -4.36678 55.29834 0.10462 0.15648 -12.63519 -0.12867 -0.70473 154.49663 -78.53868 -59.31488 16.45565 88.94669 0.69141 -6.74952 158.77938 73.76811 74.70262 11.99365 -75.3249 2.04698 7.52764 52.49106 0.63409 -0.36114 -19.1441 -8.88983 -5.59836 -3.78599 55.4364 0.6469 -1.65385 -24.16093 -9.26433 5.37399 3.65709
-0.00026 6e-05 -0.00129 24.64119 -36.18487 -4.39435 55.3907 0.06017 0.04288 -12.78855 -0.11096 -0.70512 154.99788 -78.55 -58.72337 16.50193 88.91722 0.61814 -6.84291 158.7523 73.83057 74.65527 12.0062 -75.32293 2.0436 7.61458 52.32159 0.47081 -1.27383 -19.12354 -8.79103 -5.52807 -3.73848 55.29763 0.70177 -1.29615 -24.16093 -9.20446 5.34266 3.63653
0.0001 0.00011 -0.00192 24.67134 -36.11488 -4.4219 55.48295 0.01575 -0.07073 -12.94181 -0.09325 -0.70551 155.49903 -78.56129 -58.13209 16.54823 88.88778 0.5449 -6.93631 158.7252 73.89298 74.60809 12.01878 -75.32096 2.04025 7.70153 52.15222 0.3075 -2.1867 -19.10296 -8.69222 -5.45775 -3.69095 55.15901 0.75658 -0.93878 -24.16094 -9.14462 5.31135 3.61599
0.00046 0.00016 -0.00255 24.7017 -36.0448 -4.44952 55.57532 -0.02879 -0.18467 -13.0954 -0.07546 -0.70589 156.00153 -78.5726 -57.53937 16.59472 88.85828 0.47148 -7.03004 158.69795 73.95549 74.56102 12.03145 -75.31898 2.03694 7.78877 51.9825 0.14361 -3.10279 -19.08228 -8.59307 -5.38719 -3.64325 55.02018 0.81144 -0.58091 -24.16094 -9.08468 5.27997 3.59541
0.00081 0.0002 -0.00318 24.73117 -35.97484 -4.47699 55.66762 -0.07304 -0.29757 -13.24826 -0.0579 -0.70628 156.50014 -78.58394 -56.95046 16.64056 88.82888 0.39853 -7.12271 158.67124 74.01784 74.51311 12.04375 -75.31704 2.0334 7.87506 51.81358 -0.01838 -4.0083 -19.06194 -8.49501 -5.31747 -3.59612 54.88155 0.86633 -0.22363 -24.16095 -9.02494 5.24875 3.57489
0.00117 0.00025 -0.00381 24.76241 -35.90469 -4.5047 55.75997 -0.11782 -0.41244 -13.40243 -0.03992 -0.70667 157.00602 -78.59519 -56.35451 16.68764 88.79933 0.32472 -7.21739 158.64348 74.08044 74.46694 12.05677 -75.31501 2.03034 7.96316 51.64323 -0.18399 -4.9339 -19.04096 -8.39488 -5.24613 -3.5479 54.74268 0.92111 0.13453 -24.16094 -8.96486 5.21725 3.55426
0.00153 0.0003 -0.00444 24.79203 -35.83472 -4.53221 55.85227 -0.16211 -0.52549 -13.55538 -0.02232 -0.70706 157.5052 -78.60654 -55.76507 16.73362 88.76991 0.25168 -7.31026 158.61671 74.14281 74.41919 12.06913 -75.31306 2.02683 8.04963 51.47418 -0.34631 -5.84135 -19.02055 -8.29663 -5.17626 -3.50067 54.60403 0.97597 0.49172 -24.16095 -8.9051 5.18601 3.53375
0.00189 0.00035 -0.00506 24.81962 -35.76494 -4.55944 55.94456 -0.20582 -0.63638 -13.70695 -0.00521 -0.70744 157.99643 -78.61794 -55.18325 16.7781 88.74064 0.17964 -7.40079 158.59107 74.20494 74.36936 12.08067 -75.31125 2.02276 8.13398 51.30672 -0.50447 -6.72545 -19.00091 -8.20077 -5.10826 -3.45469 54.46557 1.03106 0.84858 -24.16099 -8.84565 5.15506 3.51331
0.00224 0.00039 -0.00571 24.85871 -35.69397 -4.58817 56.03709 -0.25291 -0.75988 -13.86681 0.01466 -0.70785 158.53412 -78.62885 -54.55655 16.83073 88.71047 0.10205 -7.5044 158.55866 74.26858 74.33105 12.09689 -75.30876 2.02193 8.23012 51.13011 -0.68615 -7.74043 -18.97704 -8.09142 -5.02973 -3.40167 54.32576 1.08522 1.20994 -24.16087 -8.78418 5.12235 3.49225
0.0026 0.00044 -0.00631 24.87365 -35.6256 -4.61379 56.12897 -0.29285 -0.85667 -14.00891 0.02874 -0.70819 158.97326 -78.64091 -54.02529 16.86648 88.68225 0.03601 -7.58065 158.54072 74.32894 74.26872 12.10328 -75.30763 2.01426 8.30164 50.97284 -0.81847 -8.48146 -18.96199 -8.01036 -4.97326 -3.36338 54.18901 1.14107 1.56007 -24.16107 -8.72714 5.09344 3.47261
0.00296 0.00048 -0.00681 24.82094 -35.56375 -4.63044 56.22042 -0.3132 -0.88037 -14.10403 0.02658 -0.70832 159.14379 -78.65511 -53.75218 16.85283 88.65901 0.00327 -7.57886 158.56129 74.3811 74.13705 12.08202 -75.31077 1.98742 8.30286 50.8688 -0.81163 -8.44501 -18.97226 -8.00933 -4.97928 -3.36704 54.05896 1.2041 1.89414 -24.16221 -8.68078 5.07415 3.45605
0.00333 0.00051 -0.00727 24.74428 -35.50467 -4.64403 56.31096 -0.32636 -0.87723 -14.18094 0.01867 -0.70838 159.21499 -78.67066 -53.57564 16.82277 88.6378 -0.01811 -7.55006 158.59666 74.42982 73.98173 12.05104 -75.31516 1.95375 8.27982 50.78421 -0.75584 -8.13791 -18.99119 -8.0363 -5.00709 -3.38523 53.93235 1.26844 2.21456 -24.16364 -8.6391 5.0588 3.44103
0.00369 0.00054 -0.00774 24.67942 -35.4447 -4.65931 56.4011 -0.34279 -0.88622 -14.26507 0.01363 -0.70847 159.33049 -78.68624 -53.35734 16.80227 88.61592 -0.04582 -7.53567 158.62602 74.47957 73.83967 12.02493 -75.31857 1.92352 8.26974 50.69054 -0.72491 -7.97192 -19.00544 -8.04891 -5.02363 -3.39576 53.80522 1.33046 2.53111 -24.16487 -8.59626 5.04221 3.42585
0.00406 0.00058 -0.00823 24.61046 -35.38305 -4.67339 56.49482 -0.3592 -0.89539 -14.35377 0.00751 -0.70857 159.44948 -78.69905 -53.13015 16.77297 88.59301 -0.06883 -7.51256 158.65225 74.53152 73.68762 11.99679 -75.32366 1.89201 8.25165 50.59766 -0.68304 -7.73033 -19.02282 -8.06842 -5.04594 -3.4107 53.67351 1.39945 2.88863 -24.16641 -8.54947 5.02341 3.40847
0.00441 0.00061 -0.00867 24.54458 -35.3257 -4.68915 56.58067 -0.37396 -0.89788 -14.42847 0.00223 -0.70863 159.53745 -78.71803 -52.94447 16.75798 88.57269 -0.09864 -7.50074 158.6887 74.57812 73.54993 11.97067 -75.32565 1.86138 8.2442 50.50806 -0.65212 -7.5803 -19.03576 -8.08029 -5.06145 -3.42 53.5524 1.45461 3.15949 -24.16738 -8.51188 5.01002 3.39592
0.00467 0.00063 -0.00896 24.49135 -35.27823 -4.71109 56.64674 -0.38586 -0.88812 -14.47052 0.00124 -0.70862 159.56629 -78.7529 -52.84863 16.7875 88.55927 -0.15249 -7.53089 158.74787 74.61039 73.46492 11.95167 -75.31795 1.83638 8.27461 50.41997 -0.66552 -7.76531 -19.03403 -8.06322 -5.05222 -3.40929 53.45746 1.46805 3.17807 -24.16664 -8.49971 5.01179 3.39733
0.00491 0.00064 -0.00919 24.44237 -35.23526 -4.73467 56.70459 -0.39636 -0.87263 -14.49881 0.00121 -0.70857 159.56706 -78.79402 -52.79144 16.83176 88.54836 -0.21303 -7.57255 158.81716 74.63746 73.39387 11.93519 -75.30724 1.81233 8.31601 50.33505 -0.69122 -8.04878 -19.02759 -8.0377 -5.03551 -3.39256 53.37353 1.4681 3.11295 -24.16533 -8.4964 5.01863 3.40334
0.00515 0.00065 -0.00944 24.39255 -35.19104 -4.75697 56.76509 -0.40758 -0.86004 -14.53243 0.00037 -0.70854 159.57911 -78.83285 -52.71722 16.86864 88.53607 -0.26899 -7.60619 158.88304 74.66715 73.3116 11.91806 -75.29842 1.78675 8.35086 50.25042 -0.70995 -8.27691 -19.02349 -8.01664 -5.0226 -3.37915 53.28598 1.47638 3.09689 -24.16434 -8.48827 5.0224 3.40657
0.00542 0.00066 -0.00971 24.33724 -35.14344 -4.78141 56.83019 -0.41824 -0.84531 -14.5694 0.00087 -0.7085 159.59345 -78.86957 -52.64398 16.90794 88.52474 -0.33142 -7.65065 158.94444 74.69562 73.2489 11.89845 -75.28742 1.76518 8.39181 50.159 -0.73289 -8.54081 -19.01883 -7.99383 -5.00871 -3.36377 53.19254 1.47568 3.03391 -24.16314 -8.4837 5.02963 3.41276
0.00563 0.00067 -0.00993 24.29475 -35.10404 -4.80182 56.8837 -0.42978 -0.83398 -14.59623 -0.00109 -0.70846 159.59823 -78.91194 -52.5768 16.94579 88.51214 -0.38165 -7.67568 159.01733 74.72548 73.14931 11.88477 -75.28025 1.73605 8.42249 50.08244 -0.75051 -8.75648 -19.01412 -7.97243 -4.99488 -3.3509 53.11414 1.49046 3.04887 -24.16221 -8.47371 5.0307 3.41385
0.00574 0.00066 -0.01001 24.28636 -35.08512 -4.81081 56.90783 -0.44456 -0.83396 -14.59973 -0.01015 -0.70843 159.57891 -78.97018 -52.51487 16.97726 88.49409 -0.40061 -7.64431 159.11964 74.76013 72.94247 11.88641 -75.28407 1.68154 8.42676 50.04413 -0.75151 -8.82185 -19.01036 -7.95578 -4.98202 -3.34603 53.07285 1.55137 3.29984 -24.16223 -8.44697 5.01451 3.39988
0.00581 0.00065 -0.01004 24.29093 -35.07444 -4.81568 56.92045 -0.46021 -0.83756 -14.59336 -0.02166 -0.70839 159.55221 -79.03352 -52.45763 17.00664 88.4749 -0.40647 -7.59315 159.23296 74.79642 72.69869 11.894 -75.29187 1.62015 8.4197 50.02091 -0.74679 -8.83553 -19.00669 -7.94091 -4.96954 -3.3439 53.04662 1.62821 3.63181 -24.16252 -8.41442 4.9918 3.3806
0.00589 0.00064 -0.01009 24.28988 -35.06069 -4.82238 56.93795 -0.47517 -0.83931 -14.59068 -0.03196 -0.70835 159.53252 -79.09335 -52.39901 17.03628 88.45714 -0.41555 -7.55108 159.34114 74.83222 72.47298 11.89924 -75.29807 1.56481 8.41475 49.99203 -0.74417 -8.86942 -19.00296 -7.9259 -4.95745 -3.34071 53.01463 1.69775 3.92696 -24.16262 -8.3842 4.97137 3.3636
0.00598 0.00063 -0.01015 24.28778 -35.04436 -4.82933 56.95671 -0.49135 -0.84181 -14.59073 -0.04267 -0.70831 159.49671 -79.15851 -52.33846 17.06933 88.43574 -0.43593 -7.5088 159.45058 74.86686 72.24153 11.90322 -75.30336 1.49742 8.4225 49.95835 -0.74396 -8.91963 -18.99912 -7.90787 -4.94278 -3.33654 52.97848 1.76735 4.22058 -24.16297 -8.35543 4.9538 3.34726
0.00604 0.00061 -0.01018 24.29093 -35.03519 -4.83474 56.97013 -0.50518 -0.84359 -14.5831 -0.05307 -0.70828 159.49267 -79.21357 -52.28276 17.09457 88.42145 -0.43019 -7.46235 159.55949 74.90423 72.01409 11.91103 -75.31141 1.45317 8.40159 49.93806 -0.73737 -8.92332 -18.99561 -7.89659 -4.93361 -3.33511 52.95438 1.84044 4.53602 -24.16289 -8.32238 4.92891 3.32833
0.00603 0.0006 -0.01012 24.30522 -35.04483 -4.83697 56.97237 -0.51252 -0.84335 -14.55528 -0.06237 -0.70826 159.58191 -79.24071 -52.2372 17.09907 88.42851 -0.35003 -7.4073 159.66742 74.95011 71.79799 11.92945 -75.32716 1.47721 8.29896 49.9522 -0.71315 -8.80241 -18.99297 -7.90414 -4.94003 -3.34092 52.96029 1.92231 4.90687 -24.16146 -8.27678 4.88326 3.30242
0.00598 0.00059 -0.01002 24.32435 -35.06118 -4.83775 56.96953 -0.51743 -0.84214 -14.52041 -0.07121 -0.70825 159.70271 -79.25726 -52.19665 17.09567 88.44249 -0.24502 -7.34904 159.77376 74.99847 71.58873 11.95124 -75.34537 1.5243 8.16881 49.97909 -0.68291 -8.63756 -18.99068 -7.91836 -4.95193 -3.34935 52.97768 2.00666 5.29457 -24.15961 -8.22742 4.83083 3.27428
0.00595 0.00057 -0.00994 24.34135 -35.07376 -4.83912 56.96858 -0.52333 -0.84086 -14.48975 -0.08002 -0.70824 159.80689 -79.27783 -52.15486 17.09564 88.45235 -0.15499 -7.29346 159.87872 75.04487 71.38204 11.97047 -75.36177 1.55907 8.05473 49.99936 -0.65632 -8.49821 -18.98827 -7.92919 -4.96103 -3.35638 52.98947 2.08794 5.66511 -24.158 -8.18115 4.78291 3.2479
0.00592 0.00056 -0.00987 24.35851 -35.08969 -4.84066 56.969 -0.52973 -0.84187 -14.45446 -0.08988 -0.70824 159.92086 -79.30193 -52.10848 17.09648 88.46626 -0.04903 -7.23206 159.99305 75.09488 71.15022 11.99416 -75.38118 1.60134 7.92524 50.02357 -0.62574 -8.33406 -18.98569 -7.94161 -4.97141 -3.36441 53.00337 2.17794 6.07832 -24.15618 -8.12889 4.72881 3.21821
